<svg width="129" height="129" viewBox="0 0 129 129" fill="none" xmlns="http://www.w3.org/2000/svg">
<path fill-rule="evenodd" clip-rule="evenodd" d="M64.5 112.875C70.8527 112.875 77.1432 111.624 83.0123 109.193C88.8814 106.762 94.2142 103.198 98.7063 98.7063C103.198 94.2142 106.762 88.8814 109.193 83.0123C111.624 77.1432 112.875 70.8527 112.875 64.5C112.875 58.1473 111.624 51.8568 109.193 45.9877C106.762 40.1186 103.198 34.7857 98.7063 30.2937C94.2142 25.8017 88.8814 22.2384 83.0123 19.8073C77.1432 17.3763 70.8527 16.125 64.5 16.125C51.6702 16.125 39.3658 21.2216 30.2937 30.2937C21.2216 39.3658 16.125 51.6702 16.125 64.5C16.125 77.3298 21.2216 89.6342 30.2937 98.7063C39.3658 107.778 51.6702 112.875 64.5 112.875ZM63.253 84.065L90.128 51.815L81.872 44.935L58.7595 72.6646L46.8001 60.6999L39.1999 68.3001L55.3249 84.4251L59.4851 88.5854L63.253 84.065Z" fill="url(#paint0_linear_58_230)"/>
<defs>
<linearGradient id="paint0_linear_58_230" x1="64.5" y1="16.125" x2="64.5" y2="112.875" gradientUnits="userSpaceOnUse">
<stop stop-color="#7463F6"/>
<stop offset="1" stop-color="#443A90"/>
</linearGradient>
</defs>
</svg>
